<svg width="14" height="14" viewBox="0 0 14 14" fill="none" xmlns="http://www.w3.org/2000/svg">
<path d="M1.40006 9.94039e-08C1.49197 -4.89006e-05 1.58303 0.0180181 1.66801 0.0531791C1.75292 0.0883401 1.83013 0.139902 1.89516 0.204911C1.96012 0.26992 2.01172 0.347109 2.04686 0.432061C2.082 0.517013 2.10013 0.608062 2.10006 0.7V1.1457C2.69044 1.8777 3.43657 2.46884 4.28419 2.8761C5.1319 3.28337 6.05968 3.49651 7.00006 3.5H11.2C11.7568 3.50061 12.2906 3.72205 12.6843 4.11575C13.078 4.50944 13.2994 5.04323 13.3 5.60003V7.00003C13.2994 7.55674 13.078 8.09056 12.6843 8.48424C12.2906 8.87792 11.7568 9.0994 11.2 9.10003H10.8614L12.5433 13.0245C12.589 13.1309 12.6076 13.247 12.5973 13.3624C12.587 13.4778 12.5483 13.5889 12.4845 13.6856C12.4208 13.7823 12.334 13.8616 12.232 13.9165C12.1299 13.9714 12.0159 14.0001 11.9 14H9.10005C8.96302 14.0001 8.82899 13.9599 8.71462 13.8844C8.60026 13.8089 8.51059 13.7015 8.45678 13.5755L6.55017 9.12663C5.68868 9.18985 4.84938 9.42903 4.084 9.82936C3.31855 10.2297 2.6434 10.7827 2.10006 11.4541V11.9C2.10006 12.0857 2.02628 12.2637 1.89503 12.395C1.76378 12.5263 1.5857 12.6 1.40006 12.6C1.21442 12.6 1.03634 12.5263 0.905087 12.395C0.773767 12.2637 0.700056 12.0857 0.700056 11.9V0.7C0.699986 0.608062 0.718046 0.517013 0.753256 0.432061C0.788396 0.347109 0.839914 0.26992 0.904944 0.204911C0.969975 0.139895 1.04718 0.0883401 1.1321 0.0531791C1.21708 0.0180181 1.30808 -4.89006e-05 1.40006 9.94039e-08ZM11.2 7.70003C11.3857 7.69989 11.5636 7.62611 11.6949 7.49486C11.8261 7.36362 11.8999 7.1856 11.9 7.00003V5.60003C11.8999 5.41439 11.8261 5.23641 11.6949 5.10517C11.5636 4.97392 11.3857 4.90013 11.2 4.9H10.5V7.70003H11.2ZM9.56147 12.6H10.8384L9.33862 9.10003H8.06168L9.56147 12.6ZM2.10006 9.46529C3.48025 8.32821 5.21177 7.70437 7.00006 7.69996H9.10005V4.89996H7.00006C5.21177 4.89539 3.48025 4.27148 2.10006 3.13433V9.46529Z" fill="white"/>
</svg>
