<svg width="21" height="22" viewBox="0 0 21 22" fill="none" xmlns="http://www.w3.org/2000/svg">
<path d="M13.5887 12.8639C13.5074 12.7819 13.4106 12.7168 13.3039 12.6724C13.1974 12.6279 13.083 12.6051 12.9674 12.6051C12.8519 12.6051 12.7375 12.6279 12.631 12.6724C12.5243 12.7168 12.4275 12.7819 12.3462 12.8639C12.1832 13.0279 12.0918 13.2496 12.0918 13.4808C12.0918 13.712 12.1832 13.9337 12.3462 14.0977L17.7537 19.5052C17.835 19.5872 17.9318 19.6523 18.0385 19.6967C18.145 19.7412 18.2594 19.764 18.3749 19.764C18.4905 19.764 18.6049 19.7412 18.7114 19.6967C18.8181 19.6523 18.9149 19.5872 18.9962 19.5052C19.1592 19.3412 19.2506 19.1195 19.2506 18.8883C19.2506 18.6571 19.1592 18.4354 18.9962 18.2714L13.5887 12.8639ZM14.6649 10.6852C15.3609 10.6846 16.0282 10.4076 16.5199 9.91517L18.9962 7.43893C19.1592 7.27499 19.2506 7.05322 19.2506 6.82206C19.2506 6.59089 19.1592 6.36912 18.9962 6.20518C18.9149 6.12317 18.8181 6.05808 18.7114 6.01365C18.6049 5.96923 18.4905 5.94636 18.3749 5.94636C18.2594 5.94636 18.145 5.96923 18.0385 6.01365C17.9318 6.05808 17.835 6.12317 17.7537 6.20518L15.2774 8.68143C15.1135 8.8444 14.8917 8.93587 14.6605 8.93587C14.4294 8.93587 14.2076 8.8444 14.0437 8.68143L17.1412 5.58393C17.3042 5.41999 17.3956 5.19822 17.3956 4.96706C17.3956 4.73589 17.3042 4.51412 17.1412 4.35018C17.0599 4.26817 16.9631 4.20307 16.8564 4.15865C16.7499 4.11423 16.6355 4.09136 16.5199 4.09136C16.4044 4.09136 16.2901 4.11423 16.1835 4.15865C16.0768 4.20307 15.98 4.26817 15.8987 4.35018L12.8099 7.43893C12.647 7.27499 12.5555 7.05322 12.5555 6.82206C12.5555 6.59089 12.647 6.36912 12.8099 6.20518L15.2774 3.72893C15.369 3.65049 15.4434 3.55396 15.496 3.44541C15.5485 3.33685 15.578 3.21861 15.5826 3.0981C15.5873 2.9776 15.567 2.85743 15.523 2.74514C15.479 2.63286 15.4123 2.53088 15.327 2.44561C15.2417 2.36034 15.1398 2.29361 15.0275 2.24962C14.9152 2.20564 14.795 2.18533 14.6745 2.18998C14.554 2.19464 14.4357 2.22415 14.3272 2.27667C14.2187 2.3292 14.1221 2.40359 14.0437 2.49518L11.5674 4.97143C11.0758 5.46362 10.7998 6.13081 10.7998 6.82643C10.7998 7.52206 11.0758 8.18925 11.5674 8.68143L10.4999 9.76642L9.13491 8.41893C9.52236 7.71976 9.66884 6.91252 9.55185 6.12182C9.43477 5.33111 9.0608 4.60091 8.48745 4.04393C7.22745 2.78393 3.9637 1.37518 2.4237 2.94143C0.883696 4.50768 2.27495 7.73643 3.49995 9.00518C4.18405 9.6917 5.10381 10.0922 6.07245 10.1252H6.19495C6.78655 10.1168 7.36569 9.95385 7.87495 9.65267L9.24866 11.0002L2.0037 18.2452C1.92269 18.3267 1.85854 18.4235 1.81492 18.5299C1.7713 18.6362 1.74905 18.7501 1.74946 18.8651C1.74987 18.9801 1.77291 19.0939 1.81729 19.2C1.86166 19.306 1.92649 19.4023 2.00807 19.4833C2.08966 19.5643 2.1864 19.6285 2.29277 19.6721C2.39914 19.7157 2.51307 19.7379 2.62804 19.7376C2.74301 19.7371 2.85678 19.7141 2.96284 19.6697C3.0689 19.6253 3.16519 19.5605 3.2462 19.4789L11.1212 11.6039L12.8012 9.92392C13.0465 10.1673 13.3374 10.3597 13.6572 10.4903C13.977 10.6209 14.3195 10.6872 14.6649 10.6852ZM7.3762 7.88518C7.21227 8.04813 7.01664 8.17571 6.80141 8.26C6.58618 8.34428 6.35595 8.38349 6.12495 8.37518C5.61343 8.35315 5.13039 8.13359 4.77745 7.76268C3.83245 6.81768 3.16745 4.67393 3.6662 4.17518C3.83186 4.05022 4.03654 3.9882 4.2437 4.00018C5.36046 4.08919 6.41749 4.54089 7.2537 5.28643C7.61094 5.61694 7.82399 6.0746 7.8469 6.56073C7.86982 7.04686 7.70077 7.52254 7.3762 7.88518Z" fill="white"/>
</svg>
