<svg width="22" height="25" viewBox="0 0 22 25" fill="none" xmlns="http://www.w3.org/2000/svg">
<g clip-path="url(#clip0_2719_1268)">
<path d="M21.5564 10.2629C19.4927 10.2678 17.4797 9.62422 15.8016 8.42303V16.8005C15.801 18.3521 15.3267 19.8666 14.4422 21.1414C13.5577 22.4162 12.3051 23.3905 10.8518 23.9342C9.3986 24.4779 7.81402 24.5649 6.30998 24.1837C4.80593 23.8025 3.45412 22.9712 2.43529 21.8009C1.41646 20.6307 0.779177 19.1773 0.608659 17.6351C0.438141 16.0929 0.742514 14.5354 1.48108 13.1708C2.21964 11.8063 3.35719 10.6997 4.74163 9.99914C6.12606 9.29855 7.69138 9.03732 9.22829 9.25037V13.464C8.525 13.2427 7.76979 13.2494 7.07051 13.483C6.37123 13.7166 5.76364 14.1652 5.33451 14.7647C4.90539 15.3642 4.67666 16.084 4.681 16.8212C4.68535 17.5585 4.92253 18.2755 5.35869 18.8699C5.79486 19.4643 6.40768 19.9057 7.10967 20.131C7.81165 20.3564 8.56688 20.3541 9.26752 20.1247C9.96816 19.8952 10.5784 19.4502 11.011 18.8532C11.4436 18.2562 11.6766 17.5378 11.6766 16.8005V0.42334H15.8016C15.7987 0.771687 15.8279 1.11956 15.8888 1.46256C16.0321 2.22825 16.3301 2.95666 16.7646 3.60322C17.1991 4.24977 17.761 4.8009 18.4158 5.22287C19.3474 5.83885 20.4396 6.16717 21.5564 6.16693V10.2629Z" fill="#CF2820"/>
</g>
<defs>
<clipPath id="clip0_2719_1268">
<rect width="21" height="24" fill="white" transform="translate(0.556396 0.42334)"/>
</clipPath>
</defs>
</svg>
